<?xml version="1.0" standalone="no"?>
<!DOCTYPE svg PUBLIC "-//W3C//DTD SVG 20010904//EN"
 "http://www.w3.org/TR/2001/REC-SVG-20010904/DTD/svg10.dtd">
<svg version="1.0" xmlns="http://www.w3.org/2000/svg"
 width="500.000000pt" height="500.000000pt" viewBox="0 0 500.000000 500.000000"
 preserveAspectRatio="xMidYMid meet">

<g transform="translate(0.000000,500.000000) scale(0.100000,-0.100000)"
fill="#000000" stroke="none">
<path d="M756 4184 c-14 -14 -16 -186 -16 -1683 0 -1430 2 -1670 14 -1680 11
-9 431 -12 1744 -13 951 -1 1734 2 1740 6 9 5 12 427 12 1686 0 1648 0 1679
-19 1690 -13 7 -578 10 -1740 10 -1544 0 -1721 -2 -1735 -16z m512 -1681 l-3
-1448 -140 0 -140 0 -3 1448 -2 1447 145 0 145 0 -2 -1447z m642 937 l0 -510
25 0 c24 0 25 2 26 68 1 37 0 83 -1 103 -1 20 4 83 10 140 13 119 49 209 118
296 l42 52 0 181 0 180 370 0 370 0 0 -180 0 -181 41 -51 c22 -28 50 -69 61
-91 47 -93 51 -117 57 -317 l6 -195 29 -3 28 -4 -3 509 -4 508 218 3 217 2 -2
-1447 -3 -1448 -204 -3 c-113 -1 -208 1 -213 6 -4 4 -8 164 -9 355 0 190 -4
349 -8 351 -4 3 -21 -9 -37 -26 -16 -16 -60 -53 -99 -80 l-70 -49 -5 -277 -5
-277 -365 0 -365 0 -3 277 -2 277 -55 37 c-30 20 -77 56 -105 81 -34 31 -51
41 -55 31 -3 -7 -6 -168 -7 -358 l-3 -345 -210 0 -210 0 -5 1350 c-3 743 -4
1394 -2 1448 l3 97 214 0 215 0 0 -510z m2105 -940 l0 -1445 -140 0 -140 0 -3
1448 -2 1448 142 -3 143 -3 0 -1445z"/>
<path d="M2379 3641 c-130 -27 -259 -147 -312 -289 -19 -50 -22 -83 -25 -262
-2 -142 -7 -207 -15 -212 -7 -4 -41 -8 -77 -8 -77 0 -106 -13 -138 -60 l-24
-35 4 -300 c4 -294 5 -302 31 -380 116 -344 452 -553 793 -492 309 56 534 286
580 592 16 106 19 532 4 586 -18 64 -49 83 -148 89 l-87 5 -5 210 c-5 180 -9
218 -27 267 -42 114 -131 210 -241 261 -59 26 -80 30 -172 33 -58 2 -121 -1
-141 -5z m226 -195 c65 -30 131 -104 150 -169 21 -69 22 -379 1 -396 -9 -8
-88 -11 -267 -9 l-254 3 0 200 c0 186 2 203 22 240 71 133 223 190 348 131z
m-41 -830 c18 -8 45 -29 60 -48 52 -70 47 -145 -16 -211 l-40 -42 20 -100 c12
-55 24 -121 28 -147 l6 -48 -121 0 c-143 0 -133 -18 -95 170 l26 130 -31 26
c-42 35 -61 74 -61 124 0 115 116 191 224 146z"/>
</g>
</svg>
